<svg width="1596" height="1626" viewBox="0 0 1596 1626" fill="none" xmlns="http://www.w3.org/2000/svg">
<path fill-rule="evenodd" clip-rule="evenodd" d="M674.646 1562.66C576.548 1406.92 118.754 733.208 447.471 209.988C450.913 206.488 447.47 204.739 442.307 208.238C283.973 330.731 -440.581 808.454 667.762 1569.66C674.647 1573.16 679.809 1569.66 674.646 1562.66Z" fill="#164C75"/>
<path fill-rule="evenodd" clip-rule="evenodd" d="M841.587 33.2453C242.669 528.467 777.909 1483.91 851.914 1611.66C857.077 1620.41 869.124 1616.91 874.287 1613.41C2091.06 458.471 1006.81 75.2428 865.682 31.4953C855.356 27.9955 843.308 31.4954 841.587 33.2453Z" fill="#164C75"/>
<path fill-rule="evenodd" clip-rule="evenodd" d="M1595.39 367.479V101.494C1595.39 45.4975 1550.65 0 1495.57 0H1139.32C1139.32 0 1132.44 6.9996 1139.32 8.7495C1435.34 146.992 1547.21 297.483 1585.07 367.479C1590.23 372.729 1595.39 367.479 1595.39 367.479Z" fill="#164C75"/>
<path fill-rule="evenodd" clip-rule="evenodd" d="M588.592 0.00390625H99.8198C44.7468 0.00390625 0 45.5014 0 101.498V538.973C0 538.973 6.88422 545.973 10.3263 540.723C158.335 276.488 471.562 80.4994 586.871 14.0032C595.476 7.00356 588.592 0.00390625 588.592 0.00390625Z" fill="#164C75"/>
<path fill-rule="evenodd" clip-rule="evenodd" d="M0 1004.44V1524.16C0 1580.15 44.7468 1625.65 99.8198 1625.65H631.618C631.618 1625.65 636.781 1616.9 629.897 1611.65C201.361 1335.17 55.0731 1102.43 10.3263 1006.19C5.16319 999.188 0 1004.44 0 1004.44Z" fill="#164C75"/>
<path fill-rule="evenodd" clip-rule="evenodd" d="M1070.48 1625.66H1495.58C1550.65 1625.66 1595.39 1580.16 1595.39 1524.16V1048.19C1595.39 1048.19 1590.23 1046.44 1588.51 1049.94C1388.87 1352.67 1147.93 1555.66 1070.48 1615.16C1065.32 1618.66 1070.48 1625.66 1070.48 1625.66Z" fill="#164C75"/>
</svg>
