<svg width="128" height="128" viewBox="0 0 128 128" fill="none" xmlns="http://www.w3.org/2000/svg">
<path d="M113.415 30.585L97.415 14.585C97.2293 14.399 97.0087 14.2515 96.7659 14.1509C96.5231 14.0502 96.2628 13.9984 96 13.9984C95.7372 13.9984 95.4769 14.0502 95.2341 14.1509C94.9913 14.2515 94.7707 14.399 94.585 14.585L46.585 62.585C46.3993 62.7709 46.2521 62.9915 46.1517 63.2343C46.0513 63.4771 45.9998 63.7373 46 64V80C46 80.5304 46.2107 81.0391 46.5858 81.4142C46.9609 81.7893 47.4696 82 48 82H64C64.2627 82.0002 64.5229 81.9486 64.7657 81.8483C65.0085 81.7479 65.2291 81.6007 65.415 81.415L113.415 33.415C113.601 33.2292 113.748 33.0087 113.849 32.7659C113.95 32.5231 114.002 32.2628 114.002 32C114.002 31.7372 113.95 31.4769 113.849 31.2341C113.748 30.9913 113.601 30.7707 113.415 30.585ZM63.17 78H50V64.83L84 30.83L97.17 44L63.17 78ZM100 41.17L86.83 28L96 18.83L109.17 32L100 41.17ZM110 64V104C110 105.591 109.368 107.117 108.243 108.243C107.117 109.368 105.591 110 104 110H24C22.4087 110 20.8826 109.368 19.7574 108.243C18.6321 107.117 18 105.591 18 104V24C18 22.4087 18.6321 20.8826 19.7574 19.7573C20.8826 18.6321 22.4087 18 24 18H64C64.5304 18 65.0391 18.2107 65.4142 18.5858C65.7893 18.9608 66 19.4696 66 20C66 20.5304 65.7893 21.0391 65.4142 21.4142C65.0391 21.7893 64.5304 22 64 22H24C23.4696 22 22.9609 22.2107 22.5858 22.5858C22.2107 22.9608 22 23.4696 22 24V104C22 104.53 22.2107 105.039 22.5858 105.414C22.9609 105.789 23.4696 106 24 106H104C104.53 106 105.039 105.789 105.414 105.414C105.789 105.039 106 104.53 106 104V64C106 63.4696 106.211 62.9608 106.586 62.5858C106.961 62.2107 107.47 62 108 62C108.53 62 109.039 62.2107 109.414 62.5858C109.789 62.9608 110 63.4696 110 64Z" fill="#003D6A"/>
</svg>
