<svg width="128" height="128" viewBox="0 0 128 128" fill="none" xmlns="http://www.w3.org/2000/svg">
<path d="M100 30H16C13.3478 30 10.8043 31.0536 8.92893 32.9289C7.05357 34.8043 6 37.3478 6 40V88C6 90.6522 7.05357 93.1957 8.92893 95.0711C10.8043 96.9464 13.3478 98 16 98H100C102.652 98 105.196 96.9464 107.071 95.0711C108.946 93.1957 110 90.6522 110 88V40C110 37.3478 108.946 34.8043 107.071 32.9289C105.196 31.0536 102.652 30 100 30ZM106 88C106 89.5913 105.368 91.1174 104.243 92.2426C103.117 93.3679 101.591 94 100 94H16C14.4087 94 12.8826 93.3679 11.7574 92.2426C10.6321 91.1174 10 89.5913 10 88V40C10 38.4087 10.6321 36.8826 11.7574 35.7574C12.8826 34.6321 14.4087 34 16 34H100C101.591 34 103.117 34.6321 104.243 35.7574C105.368 36.8826 106 38.4087 106 40V88ZM126 48V80C126 80.5304 125.789 81.0391 125.414 81.4142C125.039 81.7893 124.53 82 124 82C123.47 82 122.961 81.7893 122.586 81.4142C122.211 81.0391 122 80.5304 122 80V48C122 47.4696 122.211 46.9609 122.586 46.5858C122.961 46.2107 123.47 46 124 46C124.53 46 125.039 46.2107 125.414 46.5858C125.789 46.9609 126 47.4696 126 48ZM67.7 62.95C67.8795 63.2397 67.9819 63.5704 67.9977 63.9108C68.0134 64.2512 67.9419 64.59 67.79 64.895L59.79 80.895C59.6237 81.2273 59.3682 81.5067 59.052 81.7018C58.7358 81.897 58.3716 82.0003 58 82C57.6896 81.9987 57.3836 81.9269 57.105 81.79C56.8698 81.6726 56.6601 81.51 56.4878 81.3115C56.3155 81.1129 56.184 80.8824 56.1009 80.633C56.0178 80.3837 55.9846 80.1203 56.0034 79.8582C56.0221 79.596 56.0923 79.34 56.21 79.105L62.765 66H50C49.6589 66.0002 49.3234 65.9133 49.0254 65.7473C48.7274 65.5813 48.4769 65.3419 48.2975 65.0518C48.1181 64.7617 48.0159 64.4305 48.0006 64.0898C47.9853 63.749 48.0574 63.41 48.21 63.105L56.21 47.105C56.4474 46.6303 56.8636 46.2693 57.3671 46.1014C57.8707 45.9336 58.4203 45.9726 58.895 46.21C59.3697 46.4474 59.7307 46.8636 59.8986 47.3671C60.0664 47.8707 60.0274 48.4203 59.79 48.895L53.235 62H66C66.3408 62.0004 66.6759 62.0878 66.9734 62.2541C67.271 62.4204 67.5211 62.6599 67.7 62.95Z" fill="#003D6A"/>
</svg>
