<svg width="128" height="128" viewBox="0 0 128 128" fill="none" xmlns="http://www.w3.org/2000/svg">
<path d="M18 52C18 51.4696 18.2107 50.9609 18.5858 50.5858C18.9609 50.2107 19.4696 50 20 50H28C28.5304 50 29.0391 50.2107 29.4142 50.5858C29.7893 50.9609 30 51.4696 30 52C30 52.5304 29.7893 53.0391 29.4142 53.4142C29.0391 53.7893 28.5304 54 28 54H20C19.4696 54 18.9609 53.7893 18.5858 53.4142C18.2107 53.0391 18 52.5304 18 52ZM37.13 27.96C37.3158 28.1458 37.5364 28.2932 37.7792 28.3938C38.022 28.4944 38.2822 28.5461 38.545 28.5461C38.8078 28.5461 39.068 28.4944 39.3108 28.3938C39.5536 28.2932 39.7742 28.1458 39.96 27.96C40.1458 27.7742 40.2932 27.5536 40.3938 27.3108C40.4943 27.068 40.5461 26.8078 40.5461 26.545C40.5461 26.2822 40.4943 26.022 40.3938 25.7792C40.2932 25.5364 40.1458 25.3158 39.96 25.13L34.3 19.5C33.9148 19.2111 33.4384 19.0709 32.9582 19.105C32.478 19.1392 32.0262 19.3454 31.6858 19.6858C31.3454 20.0262 31.1392 20.478 31.105 20.9582C31.0709 21.4384 31.2111 21.9149 31.5 22.3L37.13 27.96ZM64 18C64.5304 18 65.0391 17.7893 65.4142 17.4142C65.7893 17.0391 66 16.5304 66 16V8C66 7.46957 65.7893 6.96086 65.4142 6.58579C65.0391 6.21071 64.5304 6 64 6C63.4696 6 62.9608 6.21071 62.5858 6.58579C62.2107 6.96086 62 7.46957 62 8V16C62 16.5304 62.2107 17.0391 62.5858 17.4142C62.9608 17.7893 63.4696 18 64 18ZM89.455 28.545C89.7177 28.5452 89.9779 28.4936 90.2207 28.3933C90.4635 28.2929 90.6841 28.1457 90.87 27.96L96.525 22.3C96.7424 22.1228 96.9202 21.9018 97.0467 21.6515C97.1732 21.4011 97.2456 21.1269 97.2592 20.8467C97.2728 20.5666 97.2274 20.2867 97.1258 20.0252C97.0242 19.7637 96.8687 19.5266 96.6695 19.3291C96.4702 19.1316 96.2317 18.9783 95.9694 18.879C95.707 18.7798 95.4267 18.7368 95.1467 18.7529C94.8666 18.769 94.5931 18.8439 94.3438 18.9726C94.0946 19.1013 93.8752 19.281 93.7 19.5L88.04 25.13C87.76 25.4097 87.5692 25.7662 87.4919 26.1544C87.4146 26.5426 87.4542 26.9449 87.6057 27.3106C87.7572 27.6762 88.0138 27.9887 88.343 28.2084C88.6722 28.4282 89.0592 28.5453 89.455 28.545ZM100 54H108C108.53 54 109.039 53.7893 109.414 53.4142C109.789 53.0391 110 52.5304 110 52C110 51.4696 109.789 50.9609 109.414 50.5858C109.039 50.2107 108.53 50 108 50H100C99.4696 50 98.9608 50.2107 98.5858 50.5858C98.2107 50.9609 98 51.4696 98 52C98 52.5304 98.2107 53.0391 98.5858 53.4142C98.9608 53.7893 99.4696 54 100 54ZM44 54C44.5304 54 45.0391 53.7893 45.4142 53.4142C45.7893 53.0391 46 52.5304 46 52C46 47.2261 47.8964 42.6477 51.2721 39.2721C54.6477 35.8964 59.2261 34 64 34C68.7739 34 73.3522 35.8964 76.7279 39.2721C80.1036 42.6477 82 47.2261 82 52C82 52.5304 82.2107 53.0391 82.5858 53.4142C82.9608 53.7893 83.4696 54 84 54C84.5304 54 85.0391 53.7893 85.4142 53.4142C85.7893 53.0391 86 52.5304 86 52C86 46.1652 83.6821 40.5694 79.5563 36.4436C75.4305 32.3178 69.8348 30 64 30C58.1652 30 52.5694 32.3178 48.4436 36.4436C44.3178 40.5694 42 46.1652 42 52C42 52.5304 42.2107 53.0391 42.5858 53.4142C42.9608 53.7893 43.4696 54 44 54ZM117.725 109C117.55 109.303 117.299 109.555 116.996 109.73C116.693 109.906 116.35 109.999 116 110H12C11.6482 110.001 11.3024 109.91 10.9972 109.735C10.6921 109.56 10.4385 109.308 10.262 109.003C10.0855 108.699 9.99238 108.354 9.99204 108.002C9.99169 107.65 10.0841 107.305 10.26 107L30.605 71C30.7816 70.694 31.0361 70.4403 31.3426 70.2647C31.6492 70.089 31.9967 69.9977 32.35 70H95.65C96.0033 69.9977 96.3508 70.089 96.6573 70.2647C96.9638 70.4403 97.2184 70.694 97.395 71L117.74 107C117.913 107.305 118.003 107.651 118 108.002C117.998 108.353 117.903 108.697 117.725 109ZM94.5 74H78.655L81.265 86H101.265L94.5 74ZM77.185 86L74.575 74H53.44L50.83 86H77.185ZM49.975 90L46.475 106H81.5L78 90H49.975ZM26.745 86H46.745L49.355 74H33.5L26.745 86ZM15.445 106H42.39L45.89 90H24.47L15.445 106ZM112.585 106L103.545 90H82.135L85.61 106H112.585Z" fill="#003D6A"/>
</svg>
