<svg width="64" height="65" viewBox="0 0 64 65" fill="none" xmlns="http://www.w3.org/2000/svg">
<path fill-rule="evenodd" clip-rule="evenodd" d="M4 32.5C4 33.0304 4.21071 33.5391 4.58578 33.9142C4.96086 34.2892 5.46957 34.5 6 34.5H53.172L40.584 47.084C40.2085 47.4595 39.9975 47.9689 39.9975 48.5C39.9975 49.0311 40.2085 49.5404 40.584 49.916C40.9595 50.2915 41.4689 50.5025 42 50.5025C42.5311 50.5025 43.0405 50.2915 43.416 49.916L59.416 33.916C59.6023 33.7302 59.75 33.5095 59.8508 33.2665C59.9517 33.0235 60.0036 32.763 60.0036 32.5C60.0036 32.2369 59.9517 31.9764 59.8508 31.7334C59.75 31.4904 59.6023 31.2697 59.416 31.084L43.416 15.084C43.23 14.898 43.0093 14.7505 42.7663 14.6499C42.5234 14.5492 42.263 14.4974 42 14.4974C41.4689 14.4974 40.9595 14.7084 40.584 15.084C40.2085 15.4595 39.9975 15.9689 39.9975 16.5C39.9975 17.0311 40.2085 17.5404 40.584 17.916L53.172 30.5L6 30.5C5.46957 30.5 4.96086 30.7107 4.58578 31.0858C4.21071 31.4608 4 31.9695 4 32.5Z" fill="#003D6A"/>
</svg>
