<svg width="923" height="941" viewBox="0 0 923 941" fill="none" xmlns="http://www.w3.org/2000/svg">
<path fill-rule="evenodd" clip-rule="evenodd" d="M390.538 904.451C333.808 814.387 69.0692 424.784 259.164 122.21C261.154 120.186 259.164 119.174 256.178 121.198C164.614 192.035 -254.39 468.298 386.557 908.499C390.538 910.523 393.524 908.499 390.538 904.451Z" fill="#003D6A"/>
<path fill-rule="evenodd" clip-rule="evenodd" d="M487.079 20.0008C140.728 306.384 450.254 858.911 493.05 932.784C496.036 937.844 503.003 935.82 505.989 933.796C1209.64 265.906 582.624 44.2877 501.012 18.9888C495.041 16.9649 488.074 18.9888 487.079 20.0008Z" fill="#003D6A"/>
<path fill-rule="evenodd" clip-rule="evenodd" d="M923 213.286V59.4687C923 27.0861 897.123 0.775269 865.275 0.775269H659.256C659.256 0.775269 655.275 4.82309 659.256 5.83504C830.441 85.7795 895.133 172.808 917.028 213.286C920.014 216.322 923 213.286 923 213.286Z" fill="#003D6A"/>
<path fill-rule="evenodd" clip-rule="evenodd" d="M340.773 0.777466H58.1198C26.2715 0.777466 0.394775 27.0883 0.394775 59.4709V312.46C0.394775 312.46 4.37587 316.508 6.36639 313.472C91.9587 160.666 273.096 47.3274 339.778 8.87314C344.754 4.82532 340.773 0.777466 340.773 0.777466Z" fill="#003D6A"/>
<path fill-rule="evenodd" clip-rule="evenodd" d="M0.394775 581.634V882.184C0.394775 914.567 26.2715 940.878 58.1198 940.878H365.655C365.655 940.878 368.641 935.818 364.66 932.782C116.84 772.893 32.2431 638.304 6.36639 582.646C3.38061 578.598 0.394775 581.634 0.394775 581.634Z" fill="#003D6A"/>
<path fill-rule="evenodd" clip-rule="evenodd" d="M619.446 940.88H865.275C897.123 940.88 923 914.569 923 882.186V606.935C923 606.935 920.014 605.923 919.019 607.947C803.569 783.015 664.233 900.402 619.446 934.808C616.46 936.832 619.446 940.88 619.446 940.88Z" fill="#003D6A"/>
</svg>
